<?xml version="1.0" encoding="iso-8859-1"?>
<!-- Generator: Adobe Illustrator 19.0.0, SVG Export Plug-In . SVG Version: 6.00 Build 0)  -->
<svg version="1.1" id="Layer_1" xmlns="http://www.w3.org/2000/svg" xmlns:xlink="http://www.w3.org/1999/xlink" x="0px" y="0px"
	 viewBox="0 0 512.001 512.001" style="enable-background:new 0 0 512.001 512.001;" xml:space="preserve">
<path style="fill:#663300;" d="M304.13,35.666L199.595,140.2l-54.254-54.254l-32.471,32.471l17.266,91.243l-94.469,94.469
	c-47.554,47.554-47.554,124.652,0,172.206c47.553,47.553,124.652,47.553,172.206,0l268.462-268.464
	c47.554-47.554,47.553-124.653,0-172.206C428.782-11.889,351.683-11.889,304.13,35.666z"/>
<path style="fill:#983300;" d="M476.335,35.666c-47.554-47.554-124.652-47.554-172.207,0L199.595,140.2l-54.254-54.254
	l-32.471,32.471l17.266,91.243l-94.469,94.469c-47.554,47.554-47.554,124.652,0,172.206L476.335,35.666z"/>
<rect x="168.45" y="91.722" transform="matrix(-0.7071 -0.7071 0.7071 -0.7071 123.0638 591.9261)" style="fill:#663300;" width="31.347" height="357.508"/>
<rect x="209.332" y="248.156" transform="matrix(-0.7071 -0.7071 0.7071 -0.7071 140.5876 747.0139)" style="fill:#983300;" width="31.347" height="192.468"/>
<circle style="fill:#E66600;" cx="390.228" cy="121.773" r="121.772"/>
<g>
	<path style="fill:#FFBA00;" d="M476.336,35.666L476.336,35.666c-47.554-47.554-124.652-47.554-172.206,0
		c-47.553,47.553-47.553,124.652,0,172.205l0,0L476.336,35.666z"/>
	<path style="fill:#FFBA00;" d="M447.635,64.367c-31.652-31.652-83.155-31.651-114.804-0.001
		c-31.651,31.651-31.651,83.152,0,114.803c15.825,15.826,36.613,23.739,57.401,23.739c20.788,0,41.578-7.913,57.403-23.739
		C479.286,147.518,479.286,96.019,447.635,64.367z"/>
</g>
<path style="fill:#FDE09C;" d="M447.635,64.367c-31.652-31.652-83.155-31.651-114.804-0.001c-31.651,31.651-31.651,83.152,0,114.803
	l0,0L447.635,64.367z"/>
<path style="fill:#E66600;" d="M418.934,93.068c-15.826-15.826-41.577-15.825-57.401,0c-15.826,15.826-15.826,41.575,0,57.401
	c7.912,7.913,18.307,11.87,28.7,11.87c10.395,0,20.788-3.957,28.701-11.87C434.759,134.644,434.759,108.893,418.934,93.068z"/>
<path style="fill:#FFBA00;" d="M418.934,93.068L418.934,93.068c-15.826-15.826-41.577-15.826-57.401-0.001
	c-15.826,15.826-15.826,41.575,0,57.401l0,0L418.934,93.068z"/>
<g>
</g>
<g>
</g>
<g>
</g>
<g>
</g>
<g>
</g>
<g>
</g>
<g>
</g>
<g>
</g>
<g>
</g>
<g>
</g>
<g>
</g>
<g>
</g>
<g>
</g>
<g>
</g>
<g>
</g>
</svg>
